# xmcd
#
# Track frame offsets:
#	150
#	22424
#	39806
#	54562
#	74219
#
# Disc length: 1250 seconds
#
# Revision: 1
# Processed by: cddbd v1.5.2PL0 Copyright (c) Steve Scherf et al.
# Submitted via: audiograbber 1.83.01
#
DISCID=4704e005
DTITLE="Ice Man" Robinson - Demo
DYEAR=1900
DGENRE=
TTITLE0=My Baby's Comin' Home
TTITLE1=Sadie and Sally
TTITLE2=Waitin' On My Baby
TTITLE3=I Have A Need
TTITLE4=Ice Man's Boogie
EXTD=
EXTT0=
EXTT1=
EXTT2=
EXTT3=
EXTT4=
PLAYORDER=
